<svg width="609" height="810" viewBox="0 0 609 810" fill="none" xmlns="http://www.w3.org/2000/svg">
<path fill-rule="evenodd" clip-rule="evenodd" d="M279.001 157.722C357.514 164.046 393.816 252.59 446.848 310.721C495.613 364.174 561.218 406.677 571.417 478.249C582.829 558.337 558.077 642.446 502.508 701.332C445.528 761.712 362.1 787.12 279.001 788.118C194.793 789.129 96.3855 776.953 50.0506 706.765C6.15234 640.269 68.5342 557.665 74.4391 478.249C79.5029 410.146 44.9263 338.906 81.6854 281.308C125.053 213.355 198.541 151.241 279.001 157.722Z" fill="#18AA94"/>
<path d="M83.1246 633.133C97.9411 602.825 113.37 571.781 118.436 538.044C121.16 519.369 120.163 500.341 115.503 482.054C110.842 463.766 102.611 446.581 91.2828 431.489C91.1773 431.301 91.1436 431.081 91.188 430.871C91.2324 430.66 91.3518 430.472 91.524 430.343C91.6963 430.214 91.9096 430.152 92.1243 430.168C92.339 430.185 92.5404 430.279 92.691 430.432C133.176 482.386 130.85 542.957 105.732 601.325C77.4459 667.039 31.6036 731.698 63.7927 805.051C64.405 806.429 62.2621 807.669 61.4355 806.352C27.5321 751.965 58.1447 684.245 83.1246 633.133Z" fill="#455A64"/>
<path d="M49.2822 670.943C56.8282 623.689 53.1088 577.46 30.1799 534.707C29.7973 533.987 31.0524 533.283 31.4656 534.003C51.7924 569.455 61.0221 608.213 57.3639 649.038C53.2312 694.96 36.6851 741.219 53.5373 786.514C53.5825 786.665 53.5695 786.827 53.5008 786.968C53.4322 787.11 53.3129 787.22 53.1666 787.278C53.0204 787.336 52.8577 787.337 52.7109 787.28C52.5642 787.224 52.4439 787.114 52.3741 786.973C34.6188 749.761 43.0525 709.793 49.2822 670.943Z" fill="#455A64"/>
<path d="M100.681 450.776C103.007 451.648 105.273 452.659 107.722 453.73C106.611 450.499 105.681 447.208 104.936 443.872C101.661 429.636 98.1554 402.542 111.625 380.622C119.064 368.468 80.6909 371.101 64.6958 385.092C60.3488 388.873 69.0122 409.829 69.0122 409.829C69.0122 409.829 48.6548 398.96 44.5221 403.216C40.3894 407.471 25.7413 423.743 26.9811 441.163C27.7005 451.495 55.6651 433.28 100.681 450.776Z" fill="#0F6B5D"/>
<path d="M-15.6927 534.6C-14.9427 540.355 12.2872 535.242 36.7007 552.019C38.1089 552.953 39.4712 554.009 40.8334 555.081C40.8334 555.081 40.711 553.719 40.5885 551.376C40.0681 541.151 39.5936 512.557 49.7723 496.27C54.0581 489.443 25.2822 489.167 16.8638 497.341C14.1086 499.974 18.3944 518.772 18.3944 518.772C18.3944 518.772 6.24122 505.837 2.58302 506.663C-1.07519 507.49 -17.0703 523.792 -15.6927 534.6Z" fill="#0F6B5D"/>
<path d="M59.1856 701.757C62.8897 663.978 88.1911 633.455 114.365 608.167C147.702 576.021 175.59 543.646 177.626 494.969C177.626 494.004 179.156 493.851 179.156 494.861C179.156 535.151 162.58 568.031 134.768 596.411C119.829 611.627 103.39 625.495 90.1503 642.333C75.7317 660.702 68.5072 680.602 61.3132 702.415C60.8234 703.67 59.0785 702.889 59.1856 701.757Z" fill="#455A64"/>
<path d="M176.891 498.658C177.394 499.722 177.819 500.822 178.161 501.949C178.625 500.694 179.172 499.472 179.799 498.29C182.631 492.688 189.534 481.452 203.815 470.308C207.488 467.446 195.947 455.889 185.447 454.434C181.468 453.914 175.559 468.425 175.559 468.425C175.559 468.425 171.32 455.674 168.258 455.185C165.197 454.695 150.671 462.945 147.273 475.635C145.942 480.381 169.131 482.217 176.891 498.658Z" fill="#0F6B5D"/>
<path d="M176.891 498.658C177.394 499.722 177.819 500.822 178.161 501.949C178.625 500.694 179.172 499.472 179.799 498.29C180.733 490.009 182.202 482.11 186.978 474.778C187.131 474.579 186.825 474.38 186.672 474.564C183.023 479.467 180.584 485.163 179.554 491.188C179.397 486.823 178.75 482.489 177.626 478.268C177.626 478.084 177.35 478.146 177.35 478.268C177.925 483.678 178.191 489.115 178.146 494.555C176.358 487.555 173.125 481.006 168.656 475.329C168.656 475.253 168.488 475.329 168.549 475.406C173.431 482.233 176.319 490.284 176.891 498.658Z" fill="white"/>
<path d="M68.1855 432.728C80.1428 436.446 91.2051 442.59 100.681 450.776C103.007 451.648 105.273 452.659 107.722 453.73C106.61 450.499 105.68 447.208 104.936 443.872C99.6859 432.866 96.1501 421.523 96.1042 407.93C96.087 407.848 96.0419 407.773 95.9764 407.72C95.9108 407.667 95.829 407.638 95.7445 407.638C95.66 407.638 95.5781 407.667 95.5126 407.72C95.4471 407.773 95.402 407.848 95.3848 407.93C93.2879 420.743 96.4256 433.555 102.135 445.158C95.0542 436.134 86.6354 428.247 77.1703 421.768C76.6652 421.401 76.2366 422.166 76.6805 422.549C85.1809 429.347 92.8055 437.172 99.3797 445.847C90.0556 439.249 79.5153 434.566 68.3692 432.07C68.2906 432.068 68.2136 432.092 68.1503 432.139C68.087 432.185 68.0411 432.252 68.02 432.328C67.9989 432.403 68.0037 432.484 68.0337 432.557C68.0637 432.629 68.1171 432.69 68.1855 432.728Z" fill="white"/>
<path d="M16.328 532.365C24.5547 537.243 31.5303 543.973 36.7007 552.019C38.1088 552.953 39.4711 554.009 40.8334 555.081C40.8334 555.081 40.7109 553.718 40.5885 551.376C40.3742 550.825 40.1293 550.305 39.8997 549.769C36.4864 538.411 34.5272 526.517 37.6191 515.955C37.6333 515.915 37.6321 515.871 37.6155 515.832C37.5989 515.793 37.5683 515.762 37.5296 515.745C37.491 515.727 37.4472 515.725 37.4071 515.739C37.3669 515.752 37.3333 515.78 37.313 515.817C33.7925 522.767 33.517 531.37 34.9864 540.08C31.8938 534.617 28.4423 529.365 24.6546 524.359C24.6546 524.282 24.4862 524.359 24.5475 524.359C29.0703 531.814 33.1044 539.556 36.6242 547.534C30.9583 541.148 24.1271 535.901 16.4964 532.074C16.2974 531.967 16.1443 532.257 16.328 532.365Z" fill="white"/>
<path d="M53.4608 711.921C53.4608 711.921 111.12 689.848 119.553 660.687C127.987 631.526 53.4608 711.921 53.4608 711.921Z" fill="#455A64"/>
<path d="M110.523 572.087C110.523 572.087 66.2418 529.058 69.9766 498.933C73.7113 468.808 110.523 572.087 110.523 572.087Z" fill="#455A64"/>
<path d="M106.283 723.417C105.131 724.534 103.893 725.557 102.579 726.478C104.4 726.544 106.215 726.728 108.013 727.029C116.462 728.285 133.957 732.418 154.498 746.102C159.794 749.638 169.804 729.739 167.187 715.488C166.161 710.115 144.84 708.691 144.84 708.691C144.84 708.691 159.488 697.639 158.814 693.475C158.141 689.312 141.227 674.066 123.35 675.106C116.676 675.535 124.222 706.334 106.283 723.417Z" fill="#0F6B5D"/>
<path d="M106.283 723.417C105.131 724.534 103.893 725.557 102.579 726.478C104.4 726.543 106.215 726.728 108.013 727.029C119.125 724.687 129.962 723.202 141.518 726.233C141.824 726.356 141.962 725.866 141.656 725.743C133.729 723.126 125.296 722.418 117.043 723.677C122.628 721.608 127.963 718.917 132.947 715.656C133.161 715.533 132.947 715.243 132.778 715.304C126.021 718.365 119.097 721.043 112.038 723.325C120.325 718.004 127.409 711.013 132.839 702.798C132.916 702.69 132.839 702.583 132.702 702.706C125.982 711.922 116.836 719.092 106.283 723.417Z" fill="white"/>
<path d="M552.739 206.341V266.76H487.569V331.983H427.154V266.76H361.936V206.341H427.154V141.166H487.569V206.341H552.739Z" fill="#0F6B5D"/>
<mask id="mask0_13_3698" style="mask-type:alpha" maskUnits="userSpaceOnUse" x="34" y="157" width="541" height="632">
<path fill-rule="evenodd" clip-rule="evenodd" d="M279.001 157.722C357.514 164.046 393.816 252.59 446.848 310.721C495.613 364.174 561.218 406.677 571.416 478.249C582.828 558.337 558.077 642.446 502.508 701.332C445.528 761.712 362.099 787.12 279.001 788.118C194.793 789.129 96.3854 776.953 50.0505 706.765C6.15223 640.269 68.5341 557.665 74.439 478.249C79.5028 410.146 44.9262 338.906 81.6853 281.308C125.053 213.355 198.541 151.241 279.001 157.722Z" fill="#A12663"/>
</mask>
<g mask="url(#mask0_13_3698)">
<path d="M224.227 273.196C213.661 314.139 194.102 361.506 203.38 404.344C210.688 437.898 235.228 464.631 262.323 484.184C321.948 527.136 413.213 550.307 473.009 494.699C496.886 472.475 511.465 418.8 485.127 392.483C471.589 379.012 453.469 372.722 436.768 364.196C414.728 353.018 400.641 336.345 394.411 312.32C382.217 265.485 392.953 235.341 398.558 188.638C399.581 179.979 399.334 171.169 392.461 162.226C386.913 153.397 378.317 146.349 368.452 141.404C360.329 135.967 351.43 131.931 341.584 130.946C320.831 128.786 297.428 143.413 279.27 151.787C260.903 160.275 251 171.074 245.566 190.76C238.049 218.137 231.346 245.724 224.227 273.215V273.196Z" fill="#263238"/>
<path d="M215.025 291.612C227.124 254.704 239.924 218.081 252.496 181.362C252.572 181.135 252.932 181.211 252.856 181.438C243.389 211.961 234.357 242.578 224.473 272.988C214.797 302.79 202.812 332.764 195.787 363.324C180.014 431.892 244.866 474.824 304.074 483.767C306.763 484.165 305.816 488.428 303.109 487.916C251.379 478.424 193.666 447.901 189.898 388.675C187.834 356.276 205.141 321.775 215.025 291.612Z" fill="#263238"/>
<path d="M396.021 184.337C396.191 183.598 397.271 183.863 397.157 184.602C390.927 222.817 380.059 266.811 394.676 304.306C401.834 322.665 414.558 338.751 430.898 349.778C443.888 358.55 458.846 362.225 473.085 368.288C528.772 391.934 512.829 470.543 464.186 492.274C463.163 492.729 462.33 490.986 463.352 490.474C498.041 473.043 516.9 432.043 499.328 395.325C485.222 365.863 446.198 366.053 422.548 346.765C373.564 306.826 383.316 239.054 396.04 184.318L396.021 184.337Z" fill="#263238"/>
<path d="M296.595 811.03H143.281C143.281 811.03 170.358 674.748 170.339 674.729C131.239 633.539 143.281 557.166 143.281 557.166L347.681 557.033C356.201 629.352 309.035 789.317 296.595 811.03Z" fill="#263238"/>
<path d="M412.343 557.033C412.343 557.033 433.909 629.39 377.938 691.743C376.556 693.296 395.396 802.959 395.055 811.03H224.624C216.312 783.652 192.966 727.798 192.966 727.798C192.966 727.798 148.962 702.921 137.544 650.383C127.471 603.983 143.281 557.147 143.281 557.147L412.343 557.014V557.033Z" fill="#37474F"/>
<g opacity="0.2">
<path d="M245.112 652.164C271.601 677.76 309.243 687.214 345.049 689.81C346.961 690.019 350.919 690.265 352.85 690.303L360.67 690.644C319.733 692.084 273.949 683.596 245.131 652.164H245.112Z" fill="#030402"/>
</g>
<path d="M396.059 669.613C415.372 648.298 421.886 602.808 419.348 580.546C413.005 525.089 377.749 496.764 377.749 496.764C377.749 496.764 399.846 470.372 389.337 441.213C384.035 426.454 334.408 338.827 311.781 319.141C290.555 300.668 255.45 314.708 242.707 327.212C204.535 364.67 170.604 456.939 147.201 543.6C145.837 548.678 138.301 576.832 138.301 576.832C238.371 638.655 396.04 669.632 396.04 669.632L396.059 669.613Z" fill="#138675"/>
<g opacity="0.1">
<path d="M322.422 330.699C313.087 330.452 303.771 330.111 294.493 329.713C277.547 328.785 260.543 327.724 243.54 326.417C243.748 326.208 243.957 326.019 244.184 325.829C260.941 327.212 277.736 328.273 294.531 328.937C303.487 329.183 312.481 329.391 321.475 329.505C321.797 329.903 322.119 330.282 322.422 330.699Z" fill="#030402"/>
<path d="M346.601 365.2C329.2 365.162 311.781 364.632 294.493 363.874C269.253 362.491 243.919 360.805 218.641 358.512C218.811 358.247 218.982 357.981 219.133 357.735C244.222 360.236 269.367 362.112 294.531 363.097C311.534 363.552 328.613 363.893 345.711 363.817C346.014 364.272 346.317 364.745 346.601 365.2Z" fill="#030402"/>
<path d="M367.221 399.133C342.928 399.74 318.597 399.076 294.493 398.034C263.403 396.348 232.16 394.169 201.07 391.005L201.524 390.039C232.444 393.468 263.459 396.026 294.531 397.258C318.389 397.902 342.398 398.319 366.369 397.693C366.653 398.186 366.937 398.66 367.221 399.133Z" fill="#030402"/>
<path d="M385.455 432.612C355.141 434.184 324.637 433.502 294.493 432.195C258.612 430.224 222.504 427.667 186.66 423.631C186.812 423.271 186.944 422.93 187.115 422.57C222.826 426.776 258.631 429.997 294.531 431.418C324.486 432.233 354.687 432.668 384.736 431.172C385.001 431.664 385.228 432.157 385.455 432.612Z" fill="#030402"/>
<path d="M391.609 464.953C391.552 465.446 391.477 465.939 391.382 466.431C359.117 468.439 326.606 467.757 294.493 466.355C254.446 464.158 214.154 461.221 174.239 456.333L174.637 455.196C214.475 460.16 254.446 464.006 294.531 465.579C326.777 466.45 359.307 466.886 391.609 464.953Z" fill="#030402"/>
<path d="M382.426 501.084C353.115 502.467 323.634 501.785 294.493 500.516C250.754 498.129 206.712 494.832 163.2 489.091C163.314 488.712 163.447 488.352 163.56 487.973C207.053 493.6 250.735 498.015 294.531 499.739C323.236 500.535 352.187 500.971 381.006 499.682C381.441 500.099 381.915 500.573 382.426 501.084Z" fill="#030402"/>
<path d="M405.507 533.691C368.641 536.95 331.283 536.268 294.493 534.676C247.422 532.1 199.99 528.5 153.26 521.906C153.354 521.546 153.468 521.186 153.563 520.808C200.369 527.079 247.365 532.062 294.531 533.9C331.17 534.904 368.187 535.34 404.825 532.365C405.053 532.801 405.28 533.236 405.507 533.691Z" fill="#030402"/>
<path d="M417.076 566.715C376.461 571.243 335.146 570.599 294.493 568.837C244.392 566.109 193.875 562.187 144.209 554.741C144.304 554.4 144.398 554.059 144.493 553.737C194.291 560.576 244.316 566.09 294.531 568.06C335.165 569.178 376.272 569.595 416.792 565.426C416.887 565.862 416.981 566.279 417.076 566.715Z" fill="#030402"/>
<path d="M419.595 599.303C419.595 599.739 419.557 600.155 419.519 600.591C378.128 605.422 335.96 604.797 294.493 602.997C251.265 600.648 207.716 597.408 164.696 591.781C163.693 591.251 162.708 590.739 161.742 590.208C205.841 595.968 250.129 600.477 294.531 602.221C336.093 603.376 378.165 603.774 419.595 599.303Z" fill="#030402"/>
<path d="M413.725 634.051C413.611 634.524 413.479 634.979 413.346 635.434C373.943 639.526 333.896 638.863 294.493 637.158C286.711 636.741 278.929 636.286 271.128 635.794C270.408 635.566 269.689 635.32 268.95 635.074C277.471 635.623 285.992 636.059 294.531 636.381C334.142 637.48 374.189 637.897 413.725 634.051Z" fill="#030402"/>
</g>
<path d="M359.818 486.306C347.889 486.458 335.96 489.11 324.524 492.539C313.011 496.007 300.174 502.733 293.774 505.366C293.622 505.423 293.679 505.688 293.849 505.631C305.456 502.562 307.047 501.88 318.37 497.807C329.674 493.733 328.424 494.017 339.974 490.834C346.488 489.034 353.153 487.954 359.818 487.045C360.253 486.988 360.253 486.306 359.818 486.306Z" fill="#263238"/>
<path d="M371.179 494.737C358.89 492.653 346.166 493.297 333.972 495.704C333.821 495.741 333.839 495.988 333.991 495.988C340.164 495.628 346.317 495.287 352.509 495.154C358.72 495.021 364.949 495.116 371.16 495.097C371.387 495.097 371.387 494.775 371.16 494.737H371.179Z" fill="#263238"/>
<path d="M273.949 317.91C273.817 322.893 286.673 367.057 312.898 368.914C323.918 369.69 326.947 327.042 326.947 327.042L347.51 287.084L303.127 239.376C303.127 239.376 274.044 315.788 273.968 317.891L273.949 317.91Z" fill="#F7A9A0"/>
<path d="M347.51 287.084L327.572 325.867C316.817 317.948 297.182 299.494 292.24 268.137C298.129 252.582 303.146 239.395 303.146 239.395L347.529 287.084H347.51Z" fill="#263238"/>
<path d="M414.236 236.383C408.158 309.744 363.567 314.386 347.756 313.059C333.404 311.847 284.704 305.917 283.17 232.328C281.637 158.74 317.65 138.373 350.616 139.396C383.581 140.419 420.314 163.041 414.236 236.383Z" fill="#F7A9A0"/>
<path d="M398.331 223.84C396.646 223.424 395.169 222.741 393.559 222.154C391.742 221.491 390.208 221.15 389.015 219.502C388.371 218.63 388.636 217.039 389.432 216.338C391.287 214.689 393.73 214.954 395.964 215.674C398.388 216.451 400.054 217.664 401.436 219.786C402.78 221.851 400.546 224.39 398.331 223.84Z" fill="#263238"/>
<path d="M349.574 221.794C351.316 221.813 352.907 221.548 354.63 221.415C356.561 221.245 358.133 221.302 359.704 220.032C360.556 219.35 360.708 217.759 360.121 216.868C358.757 214.803 356.334 214.424 353.986 214.538C351.449 214.651 349.517 215.39 347.624 217.095C345.787 218.744 347.283 221.775 349.555 221.813L349.574 221.794Z" fill="#263238"/>
<path d="M347.321 277.8C348.078 279.297 348.703 281.191 350.369 281.93C351.979 282.631 354.156 282.537 355.86 282.442C356.031 282.442 356.126 282.65 355.993 282.745C354.156 284.147 351.184 284.412 349.12 283.294C347.094 282.196 346.658 279.979 346.81 277.857C346.829 277.554 347.226 277.573 347.34 277.8H347.321Z" fill="#263238"/>
<path d="M373.621 262.719C373.621 262.719 372.656 270.202 371.728 273.594C371.633 273.916 370.781 273.84 369.607 273.594C369.55 273.594 369.512 273.594 369.474 273.556C363.226 272.855 357.754 269.122 355.444 263.23C355.292 262.832 355.823 262.605 356.069 262.889C359.647 267.398 364.362 269.596 369.645 271.15C370.137 270.278 370.876 258.285 371.425 258.399C373.318 258.74 376.632 261.013 378.658 262.264C381.138 246.747 381.1 230.964 383.808 215.561C383.922 215.011 384.736 215.068 384.755 215.58C385.948 232.12 383.486 250.024 381.346 266.11C381.1 268.118 374.795 263.647 373.602 262.7L373.621 262.719Z" fill="#263238"/>
<path d="M358.587 237.198C358.568 237.008 358.189 237.387 358.189 237.595C357.924 242.408 356.807 247.864 352.339 249.077C352.206 249.115 352.187 249.361 352.339 249.342C357.697 249.058 359.098 241.802 358.587 237.217V237.198Z" fill="#263238"/>
<path d="M349.271 234.28C349.101 235.17 349.063 236.08 349.082 236.97C348.722 237.614 348.287 238.202 347.794 238.675C346.715 239.699 345.371 240.21 343.988 239.755C341.224 238.827 340.656 235.625 341.091 232.707C341.11 232.499 341.262 232.404 341.357 232.556C342.209 234.318 343.25 236.137 344.954 236.231C346.431 236.326 347.813 234.981 349.139 234.318C349.177 234.318 349.195 234.28 349.233 234.318L349.271 234.28Z" fill="#263238"/>
<path d="M358.265 242.408C357.962 243.583 357.337 244.776 356.315 245.78C355.292 246.785 353.721 247.22 352.301 247.107C350.843 246.993 349.385 245.97 348.722 244.757C348.059 243.545 347.737 242.294 347.681 241.063C347.643 240.286 347.681 239.509 347.756 238.751C347.927 237.122 348.381 235.568 349.252 234.223C349.063 235.398 349.006 236.572 349.082 237.69C349.139 238.77 349.271 239.793 349.461 240.816C349.896 242.919 350.918 244.719 352.566 244.795C354.27 245.004 355.671 243.753 356.561 241.764C357.432 239.831 357.981 237.614 358.492 235.36C358.928 237.652 358.928 240.04 358.265 242.389V242.408Z" fill="#263238"/>
<path d="M386.364 241.29C386.421 241.12 386.705 241.574 386.667 241.764C385.834 246.5 385.683 252.071 389.772 254.268C389.905 254.344 389.848 254.572 389.697 254.534C384.546 253.037 384.83 245.648 386.364 241.29Z" fill="#263238"/>
<path d="M396.097 240.57C396.059 241.48 395.888 242.37 395.68 243.242C395.888 243.962 396.191 244.625 396.551 245.193C397.365 246.444 398.558 247.239 400.016 247.107C402.913 246.822 404.201 243.848 404.447 240.911C404.466 240.703 404.352 240.57 404.22 240.703C402.989 242.218 401.569 243.753 399.865 243.45C398.407 243.204 397.365 241.593 396.229 240.646C396.191 240.646 396.172 240.608 396.134 240.627V240.589L396.097 240.57Z" fill="#263238"/>
<path d="M385.474 246.425C385.512 247.637 385.834 248.944 386.591 250.157C387.349 251.37 388.788 252.146 390.189 252.374C391.647 252.601 393.275 251.938 394.203 250.896C395.131 249.873 395.718 248.717 396.059 247.542C396.286 246.785 396.399 246.027 396.513 245.269C396.702 243.658 396.627 242.029 396.078 240.513C396.002 241.707 395.775 242.844 395.453 243.943C395.15 244.985 394.79 245.951 394.373 246.898C393.465 248.831 392.063 250.384 390.454 250.062C388.75 249.873 387.671 248.338 387.254 246.216C386.837 244.132 386.8 241.858 386.819 239.547C385.872 241.669 385.342 243.999 385.455 246.444L385.474 246.425Z" fill="#263238"/>
<path d="M288.851 231.286C303.923 233.901 310.985 199.589 310.985 199.589C310.985 199.589 320.415 197.846 334.142 182.518C334.142 182.518 324.334 196.178 313.239 200.479C311.364 201.199 371.955 208.247 384.149 169.578C384.149 169.578 381.725 203.094 415.448 221.453C416.508 222.04 418.591 185.246 412.551 175.489C406.511 165.731 400.13 160.01 400.13 160.01C400.13 160.01 381.138 137.198 348.571 135.929C316.003 134.678 289.078 164.14 284.136 177.384C274.423 203.397 281.693 230.036 288.832 231.286H288.851Z" fill="#263238"/>
<path d="M323.255 202.867C351.638 206.864 377.37 193.033 385.058 164.689C385.247 163.988 386.345 164.197 386.307 164.917C384.717 194.814 349.195 210.369 322.914 203.321C322.289 203.151 322.592 202.772 323.274 202.867H323.255Z" fill="#263238"/>
<path d="M382.975 167.835C382.994 167.664 383.24 167.664 383.278 167.835C386.667 184.261 387.216 211.942 408.196 216.224C408.745 216.338 408.65 217.152 408.082 217.095C387.576 214.784 380.665 184.792 382.994 167.835H382.975Z" fill="#263238"/>
<path d="M295.535 233.996C295.535 233.996 283.587 208.645 272.34 212.529C261.111 216.413 267.398 251.275 278.683 257.83C289.968 264.386 296.235 254.041 296.235 254.041L295.516 233.977L295.535 233.996Z" fill="#F7A9A0"/>
<path d="M274.385 222.476C274.195 222.419 274.101 222.685 274.271 222.779C282.148 227.649 285.253 236.25 286.976 244.928C284.988 241.366 281.864 239.073 277.168 241.347C276.922 241.461 277.073 241.84 277.32 241.84C280.917 241.688 283.303 242.711 285.177 245.894C286.503 248.149 287.203 250.82 287.999 253.283C288.264 254.117 289.703 253.927 289.551 253.018C289.551 252.942 289.532 252.885 289.513 252.81C291.577 242.067 285.764 225.527 274.385 222.476Z" fill="#263238"/>
<path d="M255.09 323.688C277.509 330.623 269.348 405.878 266.432 428.046C263.516 450.213 256.832 460.406 230.191 463.494C203.55 466.583 200.237 414.101 208.151 383.54C217.505 347.485 242.669 319.842 255.09 323.688Z" fill="#F7A9A0"/>
<path d="M259.294 374.2C250.508 410.558 205.387 539.792 194.159 551.008C180.791 564.365 122.51 605.441 102.174 550.762C88.0866 512.888 183.782 380.111 229.017 337.311C251.114 316.394 274.025 313.325 259.294 374.219V374.2Z" fill="#F7A9A0"/>
<path d="M253.992 413.741C250.565 420.278 247.043 425.241 243.332 431.608C244.203 429.277 248.652 412.453 252.023 401.672C252.136 401.331 251.644 401.217 251.512 401.52C247.668 410.368 232.558 453.169 230.191 463.475C230.134 463.76 230.532 463.968 230.683 463.684C234.773 455.158 239.128 443.335 240.851 438.826C246.248 431.077 250.489 422.437 254.219 413.817C254.276 413.703 254.068 413.608 254.011 413.722L253.992 413.741Z" fill="#263238"/>
<path d="M269.329 573.914C277.906 584.733 256.34 681.133 237.973 672.417C151.669 631.436 111.168 570.58 104.446 552.903C95.6415 529.75 115.012 505.612 130.803 502.032C153.714 496.821 260.809 563.21 269.31 573.914H269.329Z" fill="#F7A9A0"/>
<path d="M176.038 519.121C214.646 530.925 259.332 565.805 259.407 565.843C260.089 566.184 259.862 567.207 259.483 567.018C252.383 563.532 203.039 531.531 175.849 520.182C175.603 520.069 175.792 519.045 176.038 519.121Z" fill="#263238"/>
<path d="M220.951 663.247C257.912 685.301 300.685 703.812 345.446 699.833C354.232 699.056 358.89 694.206 358.89 694.206C378.98 692.785 384.338 682.857 384.338 682.857C402.648 675.79 406.738 664.896 406.738 664.896C406.738 664.896 422.719 661.769 421.336 650.42C420.011 639.413 392.897 635.491 372.58 627.495C326.001 609.174 271.507 572.797 258.593 566.165L220.951 663.228V663.247Z" fill="#F7A9A0"/>
<path d="M316.874 645.324C330.696 650.439 344.121 655.839 358.568 659.041C374.416 662.565 390.246 663.304 406.34 664.46C406.851 664.498 406.851 665.199 406.34 665.237C376.859 667.756 342.663 659.856 316.628 645.93C316.003 645.589 316.173 645.04 316.874 645.305V645.324Z" fill="#263238"/>
<path d="M301.726 671.849C315.454 676.074 339.615 683.368 384.319 682.364C384.471 682.364 384.509 682.61 384.357 682.629C355.425 687.139 328.462 683.349 301.537 672.493C300.704 672.152 300.817 671.565 301.745 671.849H301.726Z" fill="#263238"/>
<path d="M293.868 686.267C317.48 692.576 333.158 693.562 358.776 694.111C358.928 694.111 358.947 694.376 358.776 694.376C329.598 696.82 318.73 694.414 293.528 687.044C292.657 686.798 292.941 686.021 293.849 686.267H293.868Z" fill="#263238"/>
<path d="M324.448 604.57C319.317 599.776 321.797 597.048 334.218 598.128C346.791 599.17 394.885 613.948 398.615 596.669C402.383 579.333 333.953 559.553 313.144 559.383C292.335 559.155 258.593 566.203 258.593 566.203C271.128 572.74 300.022 591.478 324.448 604.589V604.57Z" fill="#F7A9A0"/>
<path d="M411.907 663.209C409.389 664.46 406.473 664.251 406.359 664.479C399.012 678.272 384.49 682.326 384.433 682.364C382.842 683.861 374.094 693.599 359.079 693.922C358.833 693.922 358.795 694.244 359.041 694.3C375.742 697.711 383.941 685.111 384.736 683.311C400.224 681.436 404.92 669.916 406.965 665.237C407.079 665.255 410.619 664.782 411.907 663.475C412.04 663.342 411.964 663.209 411.907 663.228V663.209Z" fill="#263238"/>
</g>
<path d="M224.227 273.196C213.661 314.139 194.102 361.506 203.38 404.344C210.688 437.898 235.228 464.631 262.323 484.184C321.948 527.136 413.213 550.307 473.009 494.699C496.886 472.475 511.465 418.8 485.127 392.483C471.589 379.012 453.469 372.722 436.768 364.196C414.728 353.018 400.641 336.345 394.411 312.32C382.217 265.485 392.953 235.341 398.558 188.638C399.581 179.979 399.334 171.169 392.461 162.226C386.913 153.397 378.317 146.349 368.452 141.404C360.329 135.967 351.43 131.931 341.584 130.946C320.831 128.786 297.428 143.413 279.27 151.787C260.903 160.275 251 171.074 245.566 190.76C238.049 218.137 231.346 245.724 224.227 273.215V273.196Z" fill="#263238"/>
<path d="M215.025 291.612C227.124 254.704 239.924 218.081 252.496 181.362C252.572 181.135 252.932 181.211 252.856 181.438C243.389 211.961 234.357 242.578 224.473 272.988C214.797 302.79 202.812 332.764 195.787 363.324C180.014 431.892 244.866 474.824 304.074 483.767C306.763 484.165 305.816 488.428 303.109 487.916C251.379 478.424 193.666 447.901 189.898 388.675C187.834 356.276 205.141 321.775 215.025 291.612Z" fill="#263238"/>
<path d="M396.021 184.337C396.191 183.598 397.271 183.863 397.157 184.602C390.927 222.817 380.059 266.811 394.676 304.306C401.834 322.665 414.558 338.751 430.898 349.778C443.888 358.55 458.846 362.225 473.085 368.288C528.772 391.934 512.829 470.543 464.186 492.274C463.163 492.729 462.33 490.986 463.352 490.474C498.041 473.043 516.9 432.043 499.328 395.325C485.222 365.863 446.198 366.053 422.548 346.765C373.564 306.826 383.316 239.054 396.04 184.318L396.021 184.337Z" fill="#263238"/>
<path d="M396.059 669.613C415.372 648.298 421.886 602.808 419.348 580.546C413.005 525.089 377.749 496.764 377.749 496.764C377.749 496.764 399.846 470.372 389.337 441.213C384.035 426.454 334.408 338.827 311.781 319.141C290.555 300.668 255.45 314.708 242.707 327.212C204.535 364.67 170.604 456.939 147.201 543.6C145.837 548.678 138.301 576.832 138.301 576.832C238.371 638.655 396.04 669.632 396.04 669.632L396.059 669.613Z" fill="#138675"/>
<g opacity="0.1">
<path d="M322.422 330.699C313.087 330.452 303.771 330.111 294.493 329.713C277.547 328.785 260.543 327.724 243.54 326.417C243.748 326.208 243.957 326.019 244.184 325.829C260.941 327.212 277.736 328.273 294.531 328.937C303.487 329.183 312.481 329.391 321.475 329.505C321.797 329.903 322.119 330.282 322.422 330.699Z" fill="#030402"/>
<path d="M346.601 365.2C329.2 365.162 311.781 364.632 294.493 363.874C269.253 362.491 243.919 360.805 218.641 358.512C218.811 358.247 218.982 357.981 219.133 357.735C244.222 360.236 269.367 362.112 294.531 363.097C311.534 363.552 328.613 363.893 345.711 363.817C346.014 364.272 346.317 364.745 346.601 365.2Z" fill="#030402"/>
<path d="M367.221 399.133C342.928 399.74 318.597 399.076 294.493 398.034C263.403 396.348 232.16 394.169 201.07 391.005L201.524 390.039C232.444 393.468 263.459 396.026 294.531 397.258C318.389 397.902 342.398 398.319 366.369 397.693C366.653 398.186 366.937 398.66 367.221 399.133Z" fill="#030402"/>
<path d="M385.455 432.612C355.141 434.184 324.637 433.502 294.493 432.195C258.612 430.224 222.504 427.667 186.66 423.631C186.812 423.271 186.944 422.93 187.115 422.57C222.826 426.776 258.631 429.997 294.531 431.418C324.486 432.233 354.687 432.668 384.736 431.172C385.001 431.664 385.228 432.157 385.455 432.612Z" fill="#030402"/>
<path d="M391.609 464.953C391.552 465.446 391.477 465.939 391.382 466.431C359.117 468.439 326.606 467.757 294.493 466.355C254.446 464.158 214.154 461.221 174.239 456.333L174.637 455.196C214.475 460.16 254.446 464.006 294.531 465.579C326.777 466.45 359.307 466.886 391.609 464.953Z" fill="#030402"/>
<path d="M382.426 501.084C353.115 502.467 323.634 501.785 294.493 500.516C250.754 498.129 206.712 494.832 163.2 489.091C163.314 488.712 163.447 488.352 163.56 487.973C207.053 493.6 250.735 498.015 294.531 499.739C323.236 500.535 352.187 500.971 381.006 499.682C381.441 500.099 381.915 500.573 382.426 501.084Z" fill="#030402"/>
<path d="M405.507 533.691C368.641 536.95 331.283 536.268 294.493 534.676C247.422 532.1 199.99 528.5 153.26 521.906C153.354 521.546 153.468 521.186 153.563 520.808C200.369 527.079 247.365 532.062 294.531 533.9C331.17 534.904 368.187 535.34 404.825 532.365C405.053 532.801 405.28 533.236 405.507 533.691Z" fill="#030402"/>
<path d="M417.076 566.715C376.461 571.243 335.146 570.599 294.493 568.837C244.392 566.109 193.875 562.187 144.209 554.741C144.304 554.4 144.398 554.059 144.493 553.737C194.291 560.576 244.316 566.09 294.531 568.06C335.165 569.178 376.272 569.595 416.792 565.426C416.887 565.862 416.981 566.279 417.076 566.715Z" fill="#030402"/>
<path d="M419.595 599.303C419.595 599.739 419.557 600.155 419.519 600.591C378.128 605.422 335.96 604.797 294.493 602.997C251.265 600.648 207.716 597.408 164.696 591.781C163.693 591.251 162.708 590.739 161.742 590.208C205.841 595.968 250.129 600.477 294.531 602.221C336.093 603.376 378.165 603.774 419.595 599.303Z" fill="#030402"/>
<path d="M413.725 634.051C413.611 634.524 413.479 634.979 413.346 635.434C373.943 639.526 333.896 638.863 294.493 637.158C286.711 636.741 278.929 636.286 271.128 635.794C270.408 635.566 269.689 635.32 268.95 635.074C277.471 635.623 285.992 636.059 294.531 636.381C334.142 637.48 374.189 637.897 413.725 634.051Z" fill="#030402"/>
</g>
<path d="M359.818 486.306C347.889 486.458 335.96 489.11 324.524 492.539C313.011 496.007 300.174 502.733 293.774 505.366C293.622 505.423 293.679 505.688 293.849 505.631C305.456 502.562 307.047 501.88 318.37 497.806C329.674 493.733 328.424 494.017 339.974 490.834C346.488 489.034 353.153 487.954 359.818 487.045C360.253 486.988 360.253 486.306 359.818 486.306Z" fill="#263238"/>
<path d="M371.179 494.737C358.89 492.653 346.166 493.297 333.972 495.703C333.821 495.741 333.839 495.988 333.991 495.988C340.164 495.628 346.317 495.287 352.509 495.154C358.72 495.021 364.949 495.116 371.16 495.097C371.387 495.097 371.387 494.775 371.16 494.737H371.179Z" fill="#263238"/>
<path d="M273.949 317.91C273.817 322.893 286.673 367.057 312.898 368.914C323.918 369.69 326.947 327.042 326.947 327.042L347.51 287.084L303.127 239.376C303.127 239.376 274.044 315.788 273.968 317.891L273.949 317.91Z" fill="#F7A9A0"/>
<path d="M347.51 287.084L327.572 325.867C316.817 317.948 297.182 299.494 292.24 268.137C298.129 252.582 303.146 239.395 303.146 239.395L347.529 287.084H347.51Z" fill="#263238"/>
<path d="M414.236 236.383C408.158 309.744 363.567 314.386 347.756 313.059C333.404 311.847 284.704 305.917 283.17 232.328C281.637 158.74 317.65 138.373 350.616 139.396C383.581 140.419 420.314 163.041 414.236 236.383Z" fill="#F7A9A0"/>
<path d="M398.331 223.84C396.646 223.424 395.169 222.741 393.559 222.154C391.742 221.491 390.208 221.15 389.015 219.502C388.371 218.63 388.636 217.039 389.432 216.338C391.287 214.689 393.73 214.954 395.964 215.674C398.388 216.451 400.054 217.664 401.436 219.786C402.78 221.851 400.546 224.39 398.331 223.84Z" fill="#263238"/>
<path d="M349.574 221.794C351.316 221.813 352.907 221.548 354.63 221.415C356.561 221.245 358.133 221.302 359.704 220.032C360.556 219.35 360.708 217.759 360.121 216.868C358.757 214.803 356.334 214.424 353.986 214.538C351.449 214.651 349.517 215.39 347.624 217.095C345.787 218.744 347.283 221.775 349.555 221.813L349.574 221.794Z" fill="#263238"/>
<path d="M347.321 277.8C348.078 279.297 348.703 281.191 350.369 281.93C351.979 282.631 354.156 282.537 355.86 282.442C356.031 282.442 356.126 282.65 355.993 282.745C354.156 284.147 351.184 284.412 349.12 283.294C347.094 282.196 346.658 279.979 346.81 277.857C346.829 277.554 347.226 277.573 347.34 277.8H347.321Z" fill="#263238"/>
<path d="M373.621 262.719C373.621 262.719 372.656 270.202 371.728 273.594C371.633 273.916 370.781 273.84 369.607 273.594C369.55 273.594 369.512 273.594 369.474 273.556C363.226 272.855 357.754 269.122 355.444 263.23C355.292 262.832 355.823 262.605 356.069 262.889C359.647 267.398 364.362 269.596 369.645 271.15C370.137 270.278 370.876 258.285 371.425 258.399C373.318 258.74 376.632 261.013 378.658 262.264C381.138 246.747 381.1 230.964 383.808 215.561C383.922 215.011 384.736 215.068 384.755 215.58C385.948 232.12 383.486 250.024 381.346 266.11C381.1 268.118 374.795 263.647 373.602 262.7L373.621 262.719Z" fill="#263238"/>
<path d="M358.587 237.198C358.568 237.008 358.189 237.387 358.189 237.595C357.924 242.408 356.807 247.864 352.339 249.077C352.206 249.115 352.187 249.361 352.339 249.342C357.697 249.058 359.098 241.802 358.587 237.217V237.198Z" fill="#263238"/>
<path d="M349.271 234.28C349.101 235.17 349.063 236.08 349.082 236.97C348.722 237.614 348.287 238.202 347.794 238.675C346.715 239.699 345.371 240.21 343.988 239.755C341.224 238.827 340.656 235.625 341.091 232.707C341.11 232.499 341.262 232.404 341.357 232.556C342.209 234.318 343.25 236.137 344.954 236.231C346.431 236.326 347.813 234.981 349.139 234.318C349.177 234.318 349.195 234.28 349.233 234.318L349.271 234.28Z" fill="#263238"/>
<path d="M358.265 242.408C357.962 243.583 357.337 244.776 356.315 245.78C355.292 246.785 353.721 247.22 352.301 247.107C350.843 246.993 349.385 245.97 348.722 244.757C348.059 243.545 347.737 242.294 347.681 241.063C347.643 240.286 347.681 239.509 347.756 238.751C347.927 237.122 348.381 235.568 349.252 234.223C349.063 235.398 349.006 236.572 349.082 237.69C349.139 238.77 349.271 239.793 349.461 240.816C349.896 242.919 350.918 244.719 352.566 244.795C354.27 245.004 355.671 243.753 356.561 241.764C357.432 239.831 357.981 237.614 358.492 235.36C358.928 237.652 358.928 240.04 358.265 242.389V242.408Z" fill="#263238"/>
<path d="M386.364 241.29C386.421 241.12 386.705 241.574 386.667 241.764C385.834 246.5 385.683 252.071 389.772 254.268C389.905 254.344 389.848 254.572 389.697 254.534C384.546 253.037 384.83 245.648 386.364 241.29Z" fill="#263238"/>
<path d="M396.097 240.57C396.059 241.48 395.888 242.37 395.68 243.242C395.888 243.962 396.191 244.625 396.551 245.193C397.365 246.444 398.558 247.239 400.016 247.107C402.913 246.822 404.201 243.848 404.447 240.911C404.466 240.703 404.352 240.57 404.22 240.703C402.989 242.218 401.569 243.753 399.865 243.45C398.407 243.204 397.365 241.593 396.229 240.646C396.191 240.646 396.172 240.608 396.134 240.627V240.589L396.097 240.57Z" fill="#263238"/>
<path d="M385.474 246.425C385.512 247.637 385.834 248.944 386.591 250.157C387.349 251.37 388.788 252.146 390.189 252.374C391.647 252.601 393.275 251.938 394.203 250.896C395.131 249.873 395.718 248.717 396.059 247.542C396.286 246.785 396.399 246.027 396.513 245.269C396.702 243.658 396.627 242.029 396.078 240.513C396.002 241.707 395.775 242.844 395.453 243.943C395.15 244.985 394.79 245.951 394.373 246.898C393.465 248.831 392.063 250.384 390.454 250.062C388.75 249.873 387.671 248.338 387.254 246.216C386.837 244.132 386.8 241.858 386.819 239.547C385.872 241.669 385.342 243.999 385.455 246.444L385.474 246.425Z" fill="#263238"/>
<path d="M288.851 231.286C303.923 233.901 310.985 199.589 310.985 199.589C310.985 199.589 320.415 197.846 334.142 182.518C334.142 182.518 324.334 196.178 313.239 200.479C311.364 201.199 371.955 208.247 384.149 169.578C384.149 169.578 381.725 203.094 415.448 221.453C416.508 222.04 418.591 185.246 412.551 175.489C406.511 165.731 400.13 160.01 400.13 160.01C400.13 160.01 381.138 137.198 348.571 135.929C316.003 134.678 289.078 164.14 284.136 177.384C274.423 203.397 281.693 230.036 288.832 231.286H288.851Z" fill="#263238"/>
<path d="M323.255 202.867C351.638 206.864 377.37 193.033 385.058 164.689C385.247 163.988 386.345 164.197 386.307 164.917C384.717 194.814 349.195 210.369 322.914 203.321C322.289 203.151 322.592 202.772 323.274 202.867H323.255Z" fill="#263238"/>
<path d="M382.975 167.835C382.994 167.664 383.24 167.664 383.278 167.835C386.667 184.261 387.216 211.942 408.196 216.224C408.745 216.338 408.65 217.152 408.082 217.095C387.576 214.784 380.665 184.792 382.994 167.835H382.975Z" fill="#263238"/>
<path d="M295.535 233.996C295.535 233.996 283.587 208.645 272.34 212.529C261.111 216.413 267.398 251.275 278.683 257.83C289.968 264.386 296.235 254.041 296.235 254.041L295.516 233.977L295.535 233.996Z" fill="#F7A9A0"/>
<path d="M274.385 222.476C274.195 222.419 274.101 222.685 274.271 222.779C282.148 227.649 285.253 236.25 286.976 244.928C284.988 241.366 281.864 239.073 277.168 241.347C276.922 241.461 277.073 241.84 277.32 241.84C280.917 241.688 283.303 242.711 285.177 245.894C286.503 248.149 287.203 250.82 287.999 253.283C288.264 254.117 289.703 253.927 289.551 253.018C289.551 252.942 289.532 252.885 289.513 252.81C291.577 242.067 285.764 225.527 274.385 222.476Z" fill="#263238"/>
<path d="M255.09 323.688C277.509 330.623 269.348 405.878 266.432 428.046C263.516 450.213 256.832 460.406 230.191 463.494C203.55 466.583 200.237 414.101 208.151 383.54C217.505 347.485 242.669 319.842 255.09 323.688Z" fill="#F7A9A0"/>
<path d="M259.294 374.2C250.508 410.558 205.387 539.792 194.159 551.008C180.791 564.365 122.51 605.441 102.174 550.762C88.0866 512.888 183.782 380.111 229.017 337.311C251.114 316.394 274.025 313.325 259.294 374.219V374.2Z" fill="#F7A9A0"/>
<path d="M253.992 413.741C250.565 420.278 247.043 425.241 243.332 431.608C244.203 429.277 248.652 412.453 252.023 401.672C252.136 401.331 251.644 401.217 251.512 401.52C247.668 410.368 232.558 453.169 230.191 463.475C230.134 463.76 230.532 463.968 230.683 463.684C234.773 455.158 239.128 443.335 240.851 438.826C246.248 431.077 250.489 422.437 254.219 413.817C254.276 413.703 254.068 413.608 254.011 413.722L253.992 413.741Z" fill="#263238"/>
<path d="M269.329 573.914C277.906 584.733 256.34 681.133 237.973 672.417C151.669 631.436 111.168 570.58 104.446 552.903C95.6415 529.75 115.012 505.612 130.803 502.032C153.714 496.821 260.809 563.21 269.31 573.914H269.329Z" fill="#F7A9A0"/>
<path d="M176.038 519.121C214.646 530.925 259.332 565.805 259.407 565.843C260.089 566.184 259.862 567.207 259.483 567.018C252.383 563.532 203.039 531.531 175.849 520.182C175.603 520.069 175.792 519.046 176.038 519.121Z" fill="#263238"/>
<path d="M220.951 663.247C257.912 685.301 300.685 703.812 345.446 699.833C354.232 699.056 358.89 694.206 358.89 694.206C378.98 692.785 384.338 682.857 384.338 682.857C402.648 675.79 406.738 664.896 406.738 664.896C406.738 664.896 422.719 661.769 421.336 650.42C420.011 639.413 392.897 635.491 372.58 627.495C326.001 609.174 271.507 572.797 258.593 566.165L220.951 663.228V663.247Z" fill="#F7A9A0"/>
<path d="M316.874 645.324C330.696 650.439 344.121 655.839 358.568 659.041C374.416 662.565 390.246 663.304 406.34 664.46C406.851 664.498 406.851 665.199 406.34 665.237C376.859 667.756 342.663 659.856 316.628 645.93C316.003 645.589 316.173 645.04 316.874 645.305V645.324Z" fill="#263238"/>
<path d="M301.726 671.849C315.454 676.074 339.615 683.368 384.319 682.364C384.471 682.364 384.509 682.61 384.357 682.629C355.425 687.139 328.462 683.349 301.537 672.493C300.704 672.152 300.817 671.565 301.745 671.849H301.726Z" fill="#263238"/>
<path d="M293.868 686.267C317.48 692.576 333.158 693.562 358.776 694.111C358.928 694.111 358.947 694.376 358.776 694.376C329.598 696.82 318.73 694.414 293.528 687.044C292.657 686.798 292.941 686.021 293.849 686.267H293.868Z" fill="#263238"/>
<path d="M324.448 604.57C319.317 599.776 321.797 597.048 334.218 598.128C346.791 599.17 394.885 613.948 398.615 596.669C402.383 579.333 333.953 559.553 313.144 559.383C292.335 559.155 258.593 566.203 258.593 566.203C271.128 572.74 300.022 591.478 324.448 604.589V604.57Z" fill="#F7A9A0"/>
<path d="M411.907 663.209C409.389 664.46 406.473 664.251 406.359 664.479C399.012 678.272 384.49 682.326 384.433 682.364C382.842 683.861 374.094 693.599 359.079 693.922C358.833 693.922 358.795 694.244 359.041 694.3C375.742 697.711 383.941 685.111 384.736 683.312C400.224 681.436 404.92 669.916 406.965 665.237C407.079 665.256 410.619 664.782 411.907 663.475C412.04 663.342 411.964 663.209 411.907 663.228V663.209Z" fill="#263238"/>
</svg>
